Coordinates
version=1
nRows=9
nColumns=24
inDegrees=yes

Units are S.I. units (second, meters, Newtons, ...)
Angles are in degrees.

endheader
time	pelvis_tilt	pelvis_list	pelvis_rotation	pelvis_tx	pelvis_ty	pelvis_tz	hip_flexion_r	hip_adduction_r	hip_rotation_r	knee_angle_r	ankle_angle_r	subtalar_angle_r	mtp_angle_r	hip_flexion_l	hip_adduction_l	hip_rotation_l	knee_angle_l	ankle_angle_l	subtalar_angle_l	mtp_angle_l	lumbar_extension	lumbar_bending	lumbar_rotation
      4.18000000	     -5.07298018	     -8.34571071	      2.29017897	      0.01095601	     -0.02022332	     -0.17714409	     13.52913708	     16.69093616	      6.16345358	    -19.10076555	     -0.01865280	     -5.91250766	      9.88003676	     30.82869044	     -8.48150441	     -5.42959371	    -70.04532436	     -6.18736791	    -12.84183341	    -22.73574822	      6.07284586	      7.41457861	     -1.40245855
      4.18500000	     -5.03082567	     -8.13492271	      2.07740618	      0.01673134	     -0.01947482	     -0.17661017	     12.69806464	     16.56989370	      6.66014147	    -18.65418248	      0.18200009	     -5.91853350	      9.68974726	     31.50058220	     -8.21835142	     -5.66754909	    -69.33689586	     -5.59877488	    -12.71832859	    -22.30340465	      5.93830666	      7.22225870	     -1.07033876
      4.19000000	     -5.00158186	     -7.91804602	      1.85628055	      0.02251859	     -0.01878908	     -0.17603063	     11.88587188	     16.43447304	      7.14176079	    -18.21046332	      0.38607040	     -5.90156408	      9.53945660	     32.15080049	     -7.96705136	     -5.92272095	    -68.53905710	     -5.03039272	    -12.55860735	    -21.84976980	      5.82173774	      7.01632734	     -0.73363918
      4.19500000	     -4.98280552	     -7.69525776	      1.63129904	      0.02828516	     -0.01817631	     -0.17543173	     11.10129580	     16.28401289	      7.60157214	    -17.78438002	      0.59209930	     -5.87482434	      9.43125074	     32.78283608	     -7.72711108	     -6.19995409	    -67.65833530	     -4.47459192	    -12.35980210	    -21.40350625	      5.71390359	      6.80027573	     -0.39784208
      4.20000000	     -4.96967935	     -7.47204764	      1.40591939	      0.03404238	     -0.01763254	     -0.17481648	     10.33505131	     16.12588774	      8.05212790	    -17.37121196	      0.79691871	     -5.84852254	      9.34731655	     33.39003963	     -7.49995148	     -6.48606747	    -66.69534180	     -3.93172651	    -12.12580957	    -20.96690708	      5.61305907	      6.58022921	     -0.06287692
      4.20500000	     -4.99953208	     -7.24428026	      1.22274352	      0.03977596	     -0.01723328	     -0.17427254	      9.64584159	     15.94577507	      8.44315993	    -16.99115281	      1.03706624	     -5.85030768	      9.32001496	     34.03036171	     -7.24572400	     -6.75057438	    -65.66206091	     -3.38517519	    -11.89187523	    -20.63015933	      5.56195319	      6.35472052	      0.19363217
      4.21000000	     -4.97835286	     -7.02640884	      0.97669688	      0.04551365	     -0.01678137	     -0.17361753	      8.89144861	     15.78538337	      8.89835227	    -16.60107367	      1.19748522	     -5.82245792	      9.24937176	     34.56027042	     -7.07034432	     -7.07835115	    -64.54082568	     -2.86264328	    -11.53810998	    -20.23693626	      5.44952486	      6.14440970	      0.57830375
      4.21500000	     -4.99119893	     -6.80111051	      0.76976988	      0.05122600	     -0.01646519	     -0.17303456	      8.20079004	     15.60498313	      9.31011939	    -16.24100581	      1.39564073	     -5.85193431	      9.19216570	     35.10504656	     -6.86415481	     -7.38405818	    -63.34400331	     -2.33671090	    -11.17949612	    -19.88189947	      5.37572499	      5.91849244	      0.88624288
      4.22000000	     -5.01930143	     -6.58266556	      0.58304074	      0.05691581	     -0.01623543	     -0.17249467	      7.54866887	     15.42443517	      9.69878798	    -15.90893000	      1.58945473	     -5.90062047	      9.14151024	     35.64224088	     -6.66015911	     -7.68040348	    -62.07672373	     -1.82295787	    -10.77814792	    -19.56942046	      5.31799497	      5.69976568	      1.17093010
